<?xml version="1.0" encoding="utf-8"?>
<!-- Generator: Adobe Illustrator 16.0.0, SVG Export Plug-In . SVG Version: 6.00 Build 0)  -->
<!DOCTYPE svg PUBLIC "-//W3C//DTD SVG 1.1//EN" "http://www.w3.org/Graphics/SVG/1.1/DTD/svg11.dtd">
<svg version="1.1" xmlns="http://www.w3.org/2000/svg" xmlns:xlink="http://www.w3.org/1999/xlink" x="0px" y="0px" width="460px"
	 height="130px" viewBox="76.5 31.5 460 130" enable-background="new 76.5 31.5 460 130" xml:space="preserve">
<g id="Layer_1">
	<g id="Layer_1_1_" display="none">
		<g id="Layer_3" display="inline">
			<polyline fill="none" stroke="#A5C0CE" stroke-width="1.6522" points="104.67,98.636 150.441,59.038 196.213,98.636 			"/>
			<polygon fill="#A5C0CE" stroke="#A5C0CE" stroke-width="2" points="150.813,63.636 110,98.636 110,137 141,137 141,111 161,111 
				161,137 191,137 191,98.636 			"/>
			<polygon fill="#A5C0CE" stroke="#A5C0CE" stroke-width="1.6522" points="165.297,67.341 182.432,83.195 182.432,55.156 
				165.297,55.156 			"/>
			<polygon fill="none" stroke="#A5C0CE" stroke-width="2" points="74,56.453 149.5,12.907 225,56.453 225,143.546 149.5,187.094 
				74,143.546 			"/>
		</g>
	</g>
	<g id="Layer_2" display="none">
		<polygon display="inline" points="138.1,60.72 94.71,60.72 51.319,60.72 94.71,17.329 		"/>
		<polygon display="inline" points="248.681,60.72 205.29,60.72 161.899,60.72 205.29,17.329 		"/>
		<polygon display="inline" points="101.974,6.966 145.364,6.966 188.754,6.966 145.364,50.356 		"/>
		<polygon display="inline" points="115.433,192.124 84.751,161.441 54.069,130.761 115.433,130.761 		"/>
		<polygon display="inline" points="51.319,131.671 82.001,162.354 112.683,193.034 51.319,193.034 		"/>
		<polygon display="inline" points="182.182,192.124 151.5,161.441 120.818,130.761 182.182,130.761 		"/>
		<polygon display="inline" points="118.068,131.671 148.75,162.354 179.432,193.034 118.068,193.034 		"/>
		<polygon display="inline" points="248.681,192.124 217.999,161.441 187.317,130.761 248.681,130.761 		"/>
		<polygon display="inline" points="184.567,131.671 215.249,162.354 245.931,193.034 184.567,193.034 		"/>
		<polygon display="inline" points="112.683,127.783 82.001,97.102 51.319,66.42 112.683,66.42 		"/>
		<polygon display="inline" points="51.319,66.421 82.001,97.103 112.683,127.784 51.319,127.784 		"/>
		<polygon display="inline" points="182.182,126.874 151.5,96.192 120.818,65.511 182.182,65.511 		"/>
		<polygon display="inline" points="118.068,66.421 148.75,97.103 179.432,127.784 118.068,127.784 		"/>
		<polygon display="inline" points="248.681,126.874 217.999,96.192 187.317,65.511 248.681,65.511 		"/>
		<polygon display="inline" points="184.567,66.421 215.249,97.103 245.931,127.784 184.567,127.784 		"/>
	</g>
	<polygon fill="#2A303F" points="135.067,114.355 117.211,96.501 99.356,78.645 135.067,78.645 	"/>
	<polygon fill="#2A303F" points="99.356,78.645 117.211,96.501 135.067,114.355 99.356,114.355 	"/>
	<polygon fill="#2A303F" points="170.777,114.355 152.922,96.5 135.066,78.645 170.777,78.645 	"/>
	<polygon fill="#2A303F" points="135.067,78.645 152.922,96.501 170.777,114.355 135.067,114.355 	"/>
	<polygon fill="#38DDE5" points="206.487,114.355 188.632,96.5 170.777,78.645 206.487,78.645 	"/>
	<polygon fill="#29C3D3" points="170.777,78.645 188.632,96.501 206.487,114.355 170.777,114.355 	"/>
	<polygon fill="#29C3D3" points="99.357,78.645 117.211,60.789 135.067,42.935 135.067,78.645 	"/>
	<polygon fill="#29C3D3" points="170.777,78.644 152.922,60.789 135.067,42.934 170.777,42.934 	"/>
	<polygon fill="#29C3D3" points="135.066,42.935 152.922,60.79 170.777,78.645 135.066,78.645 	"/>
	<polygon fill="#38E8E8" points="170.777,42.935 188.632,60.79 206.487,78.645 170.777,78.645 	"/>
	<polygon fill="#2A303F" points="99.357,114.355 117.212,132.211 135.067,150.066 99.356,150.066 	"/>
	<polygon fill="#2A303F" points="135.067,150.064 117.212,132.211 99.357,114.355 135.067,114.355 	"/>
	<polygon fill="#F9F9F9" points="135.066,114.355 152.921,132.211 170.777,150.066 135.066,150.066 	"/>
	<polygon fill="#F9F9F9" points="170.777,150.064 152.922,132.211 135.067,114.355 170.777,114.355 	"/>
	<polygon fill="#2A303F" points="206.487,150.064 188.632,132.211 170.777,114.355 206.487,114.355 	"/>
	<polygon fill="#2A303F" points="170.777,114.355 188.632,132.211 206.487,150.066 170.777,150.066 	"/>
	<g>
		<path d="M236.014,71.926V93.6c2.377-3.168,5.545-5.544,10.153-5.544c7.272,0,11.593,5.329,11.593,13.68v19.299h-4.968V102.17
			c0-5.473-2.089-9.721-7.777-9.721c-1.872,0-5.977,0.576-9.001,5.688v22.898h-4.968V71.926H236.014z"/>
		<path d="M298.44,104.834c0,9.289-7.561,16.85-16.85,16.85c-9.289,0-16.777-7.561-16.777-16.85s7.488-16.778,16.777-16.778
			C290.879,88.056,298.44,95.544,298.44,104.834z M269.925,104.834c0,6.84,4.969,12.457,11.737,12.457s11.665-5.617,11.665-12.457
			c0-6.841-4.896-12.385-11.665-12.385S269.925,97.993,269.925,104.834z"/>
		<path d="M327.31,121.035v-4.896c-2.376,3.168-5.545,5.545-10.153,5.545c-7.271,0-11.593-5.328-11.593-13.682V88.704h4.969v18.866
			c0,5.473,2.089,9.721,7.776,9.721c1.872,0,5.977-0.576,9.001-5.688V88.704h4.969v32.331H327.31z"/>
		<path d="M359.926,95.76c-3.168-1.944-5.979-3.312-9.146-3.312c-3.312,0-5.472,1.944-5.472,4.176c0,2.592,2.232,3.672,9.939,7.706
			c1.727,0.936,5.902,3.238,5.902,8.279c0,3.24-2.592,9.072-10.657,9.072c-3.815,0-6.983-1.152-10.368-2.953v-5.109
			c5.328,3.238,8.713,3.672,10.441,3.672c2.52,0,5.473-1.584,5.473-4.32c0-3.098-2.953-4.609-7.201-6.625
			c-3.96-1.873-8.496-4.176-8.496-9.578c0-3.96,3.24-8.713,10.369-8.713c4.465,0,7.561,1.8,9.217,2.736V95.76L359.926,95.76z"/>
		<path d="M396.07,105.193h-23.979c0,7.777,5.4,12.098,11.594,12.098c6.336,0,10.297-3.24,11.881-4.537v5.041
			c-2.016,1.369-5.617,3.889-12.457,3.889c-10.801,0-16.129-8.209-16.129-16.922c0-11.233,7.488-16.706,14.832-16.706
			c7.994,0,14.258,6.553,14.258,15.985V105.193z M390.957,101.594c-0.721-6.986-5.473-9.146-9-9.146
			c-4.033,0-8.354,2.592-9.576,9.146H390.957z"/>
		<path fill="#29C3D3" d="M429.334,118.73c-4.033,2.881-5.545,2.953-6.41,2.953c-2.664,0-3.24-2.16-3.527-3.674
			c-4.033,3.025-6.553,3.674-9.434,3.674c-4.535,0-8.354-3.457-8.354-8.209c0-5.256,4.32-9.506,17.715-11.881v-2.881
			c0-2.088-0.359-6.265-6.408-6.265c-4.248,0-7.273,2.16-10.082,4.752v-5.185c1.584-1.368,5.258-3.96,10.514-3.96
			c9.217,0,10.945,6.481,10.945,10.153v17.714c0,1.369,0.145,1.729,0.863,1.729c0.648,0,2.232-0.721,4.178-2.305V118.73z
			 M419.324,104.834c-8.279,1.512-12.744,4.248-12.744,8.279c0,3.891,3.6,4.971,5.473,4.971c3.457,0,6.049-2.305,7.271-3.457
			V104.834z"/>
		<path fill="#38DDE5" d="M434.803,71.926h4.967V92.16c1.586-1.224,4.896-4.104,10.227-4.104c9.072,0,14.186,7.777,14.186,16.057
			c0,10.586-6.697,17.57-17.426,17.57c-4.104,0-8.209-0.865-11.953-2.449V71.926L434.803,71.926z M439.77,115.994
			c3.674,1.297,6.77,1.297,7.418,1.297c6.77,0,11.881-5.4,11.881-12.744c0-6.914-4.465-12.098-10.082-12.098
			c-2.375,0-5.977,1.224-9.217,4.752V115.994z"/>
		<path fill="#38E8E8" d="M476.85,121.035h-4.967V71.926h4.967V121.035z"/>
		<path fill="#43EFEA" d="M513.645,105.193h-23.979c0,7.777,5.398,12.098,11.592,12.098c6.338,0,10.297-3.24,11.881-4.537v5.041
			c-2.016,1.369-5.615,3.889-12.457,3.889c-10.801,0-16.129-8.209-16.129-16.922c0-11.233,7.488-16.706,14.834-16.706
			c7.992,0,14.258,6.553,14.258,15.985V105.193L513.645,105.193z M508.531,101.594c-0.721-6.986-5.473-9.146-9-9.146
			c-4.033,0-8.354,2.592-9.576,9.146H508.531z"/>
	</g>
	<g id="Layer_3_1_" display="none">
		<text transform="matrix(1 0 0 1 32.8184 97.4551)" display="inline" font-family="'GillSansMTPro-Book'" font-size="36">houseable</text>
	</g>
</g>
<g id="Layer_2_1_" display="none">
	<polygon display="inline" fill="#C779D0" points="135.067,114.355 117.211,96.501 99.356,78.645 135.067,78.645 	"/>
	<polygon display="inline" fill="#38E8E8" points="99.356,78.645 117.211,96.501 135.067,114.355 99.356,114.355 	"/>
	<polygon display="inline" fill="#FEAC5E" points="170.777,114.355 152.922,96.5 135.066,78.645 170.777,78.645 	"/>
	<polygon display="inline" fill="#4BC0C8" points="135.067,78.645 152.922,96.501 170.777,114.355 135.067,114.355 	"/>
	<polygon display="inline" fill="#38DDE5" points="206.487,114.355 188.632,96.5 170.777,78.645 206.487,78.645 	"/>
	<polygon display="inline" fill="#C779D0" points="170.777,78.645 188.632,96.501 206.487,114.355 170.777,114.355 	"/>
	<polygon display="inline" fill="#C779D0" points="99.357,78.645 117.211,60.789 135.067,42.935 135.067,78.645 	"/>
	<polygon display="inline" fill="#29C3D3" points="170.777,78.644 152.922,60.789 135.067,42.934 170.777,42.934 	"/>
	<polygon display="inline" fill="#FEAC5E" points="135.066,42.935 152.922,60.79 170.777,78.645 135.066,78.645 	"/>
	<polygon display="inline" fill="#38E8E8" points="170.777,42.935 188.632,60.79 206.487,78.645 170.777,78.645 	"/>
	<polygon display="inline" fill="#FEAC5E" points="99.357,114.355 117.212,132.211 135.067,150.066 99.356,150.066 	"/>
	<polygon display="inline" fill="#C779D0" points="135.067,150.064 117.212,132.211 99.357,114.355 135.067,114.355 	"/>
	<polygon display="inline" fill="#F9F9F9" points="135.066,114.355 152.921,132.211 170.777,150.066 135.066,150.066 	"/>
	<polygon display="inline" fill="#F9F9F9" points="170.777,150.064 152.922,132.211 135.067,114.355 170.777,114.355 	"/>
	<polygon display="inline" fill="#2A303F" points="206.487,150.064 188.632,132.211 170.777,114.355 206.487,114.355 	"/>
	<polygon display="inline" fill="#2A303F" points="170.777,114.355 188.632,132.211 206.487,150.066 170.777,150.066 	"/>
	<g display="inline">
		<path d="M236.014,71.926V93.6c2.377-3.168,5.545-5.544,10.153-5.544c7.272,0,11.593,5.329,11.593,13.68v19.299h-4.968V102.17
			c0-5.473-2.089-9.721-7.777-9.721c-1.872,0-5.977,0.576-9.001,5.688v22.898h-4.968V71.926H236.014z"/>
		<path d="M298.44,104.834c0,9.289-7.561,16.85-16.85,16.85c-9.289,0-16.777-7.561-16.777-16.85s7.488-16.778,16.777-16.778
			C290.879,88.056,298.44,95.544,298.44,104.834z M269.925,104.834c0,6.84,4.969,12.457,11.737,12.457s11.665-5.617,11.665-12.457
			c0-6.841-4.896-12.385-11.665-12.385S269.925,97.993,269.925,104.834z"/>
		<path d="M327.31,121.035v-4.896c-2.376,3.168-5.545,5.545-10.153,5.545c-7.271,0-11.593-5.328-11.593-13.682V88.704h4.969v18.866
			c0,5.473,2.089,9.721,7.776,9.721c1.872,0,5.977-0.576,9.001-5.688V88.704h4.969v32.331H327.31z"/>
		<path d="M359.926,95.76c-3.168-1.944-5.979-3.312-9.146-3.312c-3.312,0-5.472,1.944-5.472,4.176c0,2.592,2.232,3.672,9.939,7.706
			c1.727,0.936,5.902,3.238,5.902,8.279c0,3.24-2.592,9.072-10.657,9.072c-3.815,0-6.983-1.152-10.368-2.953v-5.109
			c5.328,3.238,8.713,3.672,10.441,3.672c2.52,0,5.473-1.584,5.473-4.32c0-3.098-2.953-4.609-7.201-6.625
			c-3.96-1.873-8.496-4.176-8.496-9.578c0-3.96,3.24-8.713,10.369-8.713c4.465,0,7.561,1.8,9.217,2.736V95.76L359.926,95.76z"/>
		<path d="M396.07,105.193h-23.979c0,7.777,5.4,12.098,11.594,12.098c6.336,0,10.297-3.24,11.881-4.537v5.041
			c-2.016,1.369-5.617,3.889-12.457,3.889c-10.801,0-16.129-8.209-16.129-16.922c0-11.233,7.488-16.706,14.832-16.706
			c7.994,0,14.258,6.553,14.258,15.985V105.193z M390.957,101.594c-0.721-6.986-5.473-9.146-9-9.146
			c-4.033,0-8.354,2.592-9.576,9.146H390.957z"/>
		<path fill="#29C3D3" d="M429.334,118.73c-4.033,2.881-5.545,2.953-6.41,2.953c-2.664,0-3.24-2.16-3.527-3.674
			c-4.033,3.025-6.553,3.674-9.434,3.674c-4.535,0-8.354-3.457-8.354-8.209c0-5.256,4.32-9.506,17.715-11.881v-2.881
			c0-2.088-0.359-6.265-6.408-6.265c-4.248,0-7.273,2.16-10.082,4.752v-5.185c1.584-1.368,5.258-3.96,10.514-3.96
			c9.217,0,10.945,6.481,10.945,10.153v17.714c0,1.369,0.145,1.729,0.863,1.729c0.648,0,2.232-0.721,4.178-2.305V118.73z
			 M419.324,104.834c-8.279,1.512-12.744,4.248-12.744,8.279c0,3.891,3.6,4.971,5.473,4.971c3.457,0,6.049-2.305,7.271-3.457
			V104.834z"/>
		<path fill="#38DDE5" d="M434.803,71.926h4.967V92.16c1.586-1.224,4.896-4.104,10.227-4.104c9.072,0,14.186,7.777,14.186,16.057
			c0,10.586-6.697,17.57-17.426,17.57c-4.104,0-8.209-0.865-11.953-2.449V71.926L434.803,71.926z M439.77,115.994
			c3.674,1.297,6.77,1.297,7.418,1.297c6.77,0,11.881-5.4,11.881-12.744c0-6.914-4.465-12.098-10.082-12.098
			c-2.375,0-5.977,1.224-9.217,4.752V115.994z"/>
		<path fill="#38E8E8" d="M476.85,121.035h-4.967V71.926h4.967V121.035z"/>
		<path fill="#43EFEA" d="M513.645,105.193h-23.979c0,7.777,5.398,12.098,11.592,12.098c6.338,0,10.297-3.24,11.881-4.537v5.041
			c-2.016,1.369-5.615,3.889-12.457,3.889c-10.801,0-16.129-8.209-16.129-16.922c0-11.233,7.488-16.706,14.834-16.706
			c7.992,0,14.258,6.553,14.258,15.985V105.193L513.645,105.193z M508.531,101.594c-0.721-6.986-5.473-9.146-9-9.146
			c-4.033,0-8.354,2.592-9.576,9.146H508.531z"/>
	</g>
</g>
</svg>
